<svg id="Layer_1" data-name="Layer 1" xmlns="http://www.w3.org/2000/svg" viewBox="0 0 113.39 118.98"><defs><style>.cls-1{fill:#fff;}.cls-2{fill:#58595b;}.cls-3{fill:#eb2227;}.cls-4{fill:#ec1f2f;}</style></defs><title>LogoCongress[RENTAL] [Convertido]</title><rect class="cls-1" width="113.39" height="118.98"/><path class="cls-2" d="M10.53,111v.34A3,3,0,0,0,9.1,111a1.67,1.67,0,0,0-1.24.51,1.74,1.74,0,0,0-.5,1.26,1.71,1.71,0,0,0,.5,1.26,1.78,1.78,0,0,0,1.29.5,3.13,3.13,0,0,0,1.42-.41v.32a3,3,0,0,1-1.42.37,2.11,2.11,0,0,1-1.52-.58A2,2,0,0,1,7,112.75a1.94,1.94,0,0,1,.62-1.46,2.06,2.06,0,0,1,1.48-.59A3.44,3.44,0,0,1,10.53,111Z" transform="translate(0 -0.04)"/><path class="cls-2" d="M23.07,110.7a2.1,2.1,0,0,1,1.5.59,2,2,0,0,1,.62,1.46,2,2,0,0,1-.62,1.45,2.2,2.2,0,0,1-3,0,1.94,1.94,0,0,1-.61-1.45,2,2,0,0,1,.61-1.46A2.1,2.1,0,0,1,23.07,110.7Zm0,3.81a1.77,1.77,0,1,0,0-3.53,1.75,1.75,0,0,0-1.27.51,1.77,1.77,0,0,0,0,2.51A1.75,1.75,0,0,0,23.08,114.51Z" transform="translate(0 -0.04)"/><path class="cls-2" d="M39.5,110.75v4h-.25l-3-3.49v3.49H35.9v-4h.26l3,3.49v-3.49Z" transform="translate(0 -0.04)"/><path class="cls-2" d="M53.73,111v.35a2.88,2.88,0,0,0-1.42-.41,1.74,1.74,0,0,0-1.77,1.77A1.74,1.74,0,0,0,51,114a1.85,1.85,0,0,0,1.36.5,2.28,2.28,0,0,0,1.09-.25v-1.07h-.84v-.26H53.8v1.53a3.31,3.31,0,0,1-1.42.33,2.18,2.18,0,0,1-1.55-.58,2,2,0,0,1-.62-1.47,1.92,1.92,0,0,1,.61-1.46,2.13,2.13,0,0,1,1.53-.58A3.32,3.32,0,0,1,53.73,111Z" transform="translate(0 -0.04)"/><path class="cls-2" d="M64.55,110.75h1a1.51,1.51,0,0,1,1,.28.9.9,0,0,1,.34.75,1,1,0,0,1-.76,1,1.9,1.9,0,0,1,.53.61l.91,1.38h-.37l-.7-1.09A2.59,2.59,0,0,0,66,113a1,1,0,0,0-.57-.13h-.54v1.91h-.31Zm.31.25v1.57h.67a1.31,1.31,0,0,0,.77-.2.76.76,0,0,0,0-1.16,1.3,1.3,0,0,0-.79-.21Z" transform="translate(0 -0.04)"/><path class="cls-2" d="M80.06,110.75V111H78.18v1.6H80v.26H78.18v1.63H80.1v.25H77.87v-4Z" transform="translate(0 -0.04)"/><path class="cls-2" d="M92.58,111v.34a1.82,1.82,0,0,0-.9-.31.9.9,0,0,0-.6.22.71.71,0,0,0-.24.54.68.68,0,0,0,.14.42,1.44,1.44,0,0,0,.6.36c.3.11.52.21.67.28a1.13,1.13,0,0,1,.35.34,1,1,0,0,1,.15.56,1,1,0,0,1-.34.78,1.17,1.17,0,0,1-.83.31,1.85,1.85,0,0,1-1-.34v-.37a1.77,1.77,0,0,0,1,.43.88.88,0,0,0,.6-.23.75.75,0,0,0,.24-.57.77.77,0,0,0-.15-.46,1.49,1.49,0,0,0-.61-.38c-.31-.12-.53-.21-.67-.28a1.08,1.08,0,0,1-.33-.31.86.86,0,0,1-.15-.52,1,1,0,0,1,.34-.75,1.16,1.16,0,0,1,.82-.31A1.88,1.88,0,0,1,92.58,111Z" transform="translate(0 -0.04)"/><path class="cls-2" d="M105.29,111v.34a1.82,1.82,0,0,0-.9-.31.89.89,0,0,0-.6.22.71.71,0,0,0-.24.54.63.63,0,0,0,.14.42,1.44,1.44,0,0,0,.6.36,6.49,6.49,0,0,1,.66.28,1.06,1.06,0,0,1,.36.34,1,1,0,0,1,.14.56,1,1,0,0,1-.33.78,1.17,1.17,0,0,1-.83.31,1.85,1.85,0,0,1-1-.34v-.37a1.78,1.78,0,0,0,1,.43.89.89,0,0,0,.61-.23.75.75,0,0,0,.24-.57.77.77,0,0,0-.15-.46,1.47,1.47,0,0,0-.62-.38,6.8,6.8,0,0,1-.66-.28,1.24,1.24,0,0,1-.34-.31.94.94,0,0,1-.14-.52,1,1,0,0,1,.34-.75,1.16,1.16,0,0,1,.81-.31A1.91,1.91,0,0,1,105.29,111Z" transform="translate(0 -0.04)"/><path class="cls-3" d="M69.18,85l-2.53.24q-5.84.53-11.45.68c-1.27,0-2.53.06-3.79.07a141.5,141.5,0,0,1-35.12-4,91.59,91.59,0,0,1-9.55-2.87h0v27.74h99.91V76.28A146.12,146.12,0,0,1,69.18,85Z" transform="translate(0 -0.04)"/><path class="cls-4" d="M6.74,6.82V42.24c1.18-.7,2.42-1.39,3.71-2.09a166.27,166.27,0,0,1,38-14.61h0l32.16,8Q57.81,37.81,44.79,44.82q-11.64,6.26-11.08,11.7T46.8,65.08A66.6,66.6,0,0,0,63.44,67l1.66,0c1.61,0,3.24-.15,4.9-.3,1.13-.1,2.27-.22,3.41-.37A74.53,74.53,0,0,0,99.28,58.2a49.4,49.4,0,0,0,7.37-4.81V6.82Z" transform="translate(0 -0.04)"/><path class="cls-1" d="M75.7,103.74V98.28h1.37a2,2,0,0,1,1.31.41,1.35,1.35,0,0,1,.49,1.11,1.37,1.37,0,0,1-.92,1.34,2.73,2.73,0,0,1,.51.47,8.47,8.47,0,0,1,.7,1c.19.31.35.54.46.7l.29.39H79l-.24-.36,0-.07-.16-.21-.24-.4-.26-.43a4.56,4.56,0,0,0-.44-.53,1.64,1.64,0,0,0-.37-.29,1.17,1.17,0,0,0-.54-.09h-.21v2.38Zm1-4.8h-.24v1.73h.3a2.14,2.14,0,0,0,.82-.11.76.76,0,0,0,.34-.3.91.91,0,0,0,.12-.47.85.85,0,0,0-.13-.47.76.76,0,0,0-.39-.29A2.63,2.63,0,0,0,76.72,98.94Z" transform="translate(0 -0.04)"/><path class="cls-1" d="M80.51,98.28h3.1V99H81.29v1.67h2.24v.7H81.29V103h2.39v.7H80.51Z" transform="translate(0 -0.04)"/><path class="cls-1" d="M88.85,98.28h.74v5.46h-.67l-3.65-4.21v4.21h-.73V98.28h.63l3.68,4.24Z" transform="translate(0 -0.04)"/><path class="cls-1" d="M90.29,98.27h4.56V99H93v4.77h-.79V99H90.29Z" transform="translate(0 -0.04)"/><path class="cls-1" d="M96.53,98.25h.55l2.45,5.49h-.8L98,102.12H95.67L95,103.74h-.8Zm1.15,3.17-.88-2-.82,2Z" transform="translate(0 -0.04)"/><path class="cls-1" d="M100.13,98.28h.78V103h2.45v.71h-3.23Z" transform="translate(0 -0.04)"/></svg>